<svg xmlns="http://www.w3.org/2000/svg" viewBox="0 0 32 32"><g fill="#4285f4" class="color000000 svgShape" color="#000" font-family="sans-serif" font-weight="400"><path style="line-height:normal;text-indent:0;text-align:start;text-decoration-line:none;text-decoration-style:solid;text-decoration-color:#000;text-transform:none;block-progression:tb;isolation:auto;mix-blend-mode:normal" fill="#34a853" d="M-210.5 4.362a.5.5 0 0 0-.5.5v11.5a5 5 0 0 0 5 5h9a5 5 0 0 0 5-5v-11.5a.5.5 0 0 0-.5-.5h-18zm.5 1h17v11c0 2.225-1.775 4-4 4h-9a3.98 3.98 0 0 1-4-4v-11z" class="color2b4255 svgShape" overflow="visible" transform="translate(217 6.638)"/><path style="line-height:normal;text-indent:0;text-align:start;text-decoration-line:none;text-decoration-style:solid;text-decoration-color:#000;text-transform:none;block-progression:tb;isolation:auto;mix-blend-mode:normal" fill="#34a853" d="M-214.508 20.606a.5.5 0 0 0-.492.506 3.254 3.254 0 0 0 3.25 3.25h20.5a3.254 3.254 0 0 0 3.25-3.25.5.5 0 1 0-1 0c0 1.255-.995 2.25-2.25 2.25h-20.5a2.234 2.234 0 0 1-2.25-2.25.5.5 0 0 0-.508-.506zm22.041-13.244a.5.5 0 1 0 0 1h1.04c1.902 0 3.427 1.548 3.427 3.5 0 1.953-1.525 3.5-3.428 3.5h-1.039a.5.5 0 1 0 0 1h1.04c2.382 0 4.284-1.922 4.388-4.308a.5.5 0 0 0 .039-.192c0-2.48-1.978-4.5-4.428-4.5h-1.039z" class="color2b4255 svgShape" overflow="visible" transform="translate(217 6.638)"/><path style="line-height:normal;text-indent:0;text-align:start;text-decoration-line:none;text-decoration-style:solid;text-decoration-color:#000;text-transform:none;block-progression:tb;isolation:auto;mix-blend-mode:normal" fill="#ea4335" d="M-208.5 8.362a.5.5 0 0 0-.5.5v3a.5.5 0 0 0 .5.5h2a.5.5 0 0 0 .5-.5v-3a.5.5 0 0 0-.5-.5h-2zm.5 1h1v2h-1v-2z" class="colorf05542 svgShape" overflow="visible" transform="translate(217 6.638)"/><path style="line-height:normal;text-indent:0;text-align:start;text-decoration-line:none;text-decoration-style:solid;text-decoration-color:#000;text-transform:none;block-progression:tb;isolation:auto;mix-blend-mode:normal" fill="#ea4335" fill-rule="evenodd" d="M-208 4.362v5h1v-5h-1z" class="colorf05542 svgShape" overflow="visible" transform="translate(217 6.638)"/><path style="line-height:normal;text-indent:0;text-align:start;text-decoration-line:none;text-decoration-style:solid;text-decoration-color:#000;text-transform:none;block-progression:tb;isolation:auto;mix-blend-mode:normal" fill="#ea4335" d="M-203.488 3.364a.5.5 0 0 0 .494-.508c0-.819.688-1.492 1.574-1.492a.5.5 0 1 0 0-1c-1.405 0-2.574 1.11-2.574 2.492a.5.5 0 0 0 .506.508zm3 0a.5.5 0 0 0 .492-.508c0-.819.688-1.492 1.574-1.492a.5.5 0 1 0 0-1c-1.405 0-2.574 1.11-2.574 2.492a.5.5 0 0 0 .508.508z" class="colorf05542 svgShape" overflow="visible" transform="translate(217 6.638)"/><path style="line-height:normal;text-indent:0;text-align:start;text-decoration-line:none;text-decoration-style:solid;text-decoration-color:#000;text-transform:none;block-progression:tb;isolation:auto;mix-blend-mode:normal" fill="#ea4335" fill-rule="evenodd" d="M-201.488.362a.5.5 0 1 0 0 1h7a.5.5 0 1 0 0-1h-7zm0-2a.5.5 0 1 0 0 1h7a.5.5 0 1 0 0-1h-7z" class="colorf05542 svgShape" overflow="visible" transform="translate(217 6.638)"/><path style="line-height:normal;text-indent:0;text-align:start;text-decoration-line:none;text-decoration-style:solid;text-decoration-color:#000;text-transform:none;block-progression:tb;isolation:auto;mix-blend-mode:normal" fill="#ea4335" d="M-194.496-1.638a.5.5 0 1 0 0 1c.282 0 .5.218.5.5 0 .282-.218.5-.5.5a.5.5 0 1 0 0 1c.822 0 1.5-.677 1.5-1.5 0-.822-.678-1.5-1.5-1.5z" class="colorf05542 svgShape" overflow="visible" transform="translate(217 6.638)"/><path style="line-height:normal;text-indent:0;text-align:start;text-decoration-line:none;text-decoration-style:solid;text-decoration-color:#000;text-transform:none;block-progression:tb;isolation:auto;mix-blend-mode:normal" fill="#ea4335" fill-rule="evenodd" d="M-208.496-1.638a.5.5 0 1 0 0 1h7a.5.5 0 1 0 0-1h-7z" class="colorf05542 svgShape" overflow="visible" transform="translate(217 6.638)"/><path style="line-height:normal;text-indent:0;text-align:start;text-decoration-line:none;text-decoration-style:solid;text-decoration-color:#000;text-transform:none;block-progression:tb;isolation:auto;mix-blend-mode:normal" fill="#ea4335" d="M-208.504-3.638a.5.5 0 1 1 0 1c-.282 0-.5.218-.5.5 0 .282.218.5.5.5a.5.5 0 1 1 0 1c-.822 0-1.5-.677-1.5-1.5 0-.822.678-1.5 1.5-1.5z" class="colorf05542 svgShape" overflow="visible" transform="translate(217 6.638)"/><path style="line-height:normal;text-indent:0;text-align:start;text-decoration-line:none;text-decoration-style:solid;text-decoration-color:#000;text-transform:none;block-progression:tb;isolation:auto;mix-blend-mode:normal" fill="#ea4335" fill-rule="evenodd" d="M-208.496-3.638a.5.5 0 1 0 0 1h7a.5.5 0 1 0 0-1h-7z" class="colorf05542 svgShape" overflow="visible" transform="translate(217 6.638)"/><path style="line-height:normal;text-indent:0;text-align:start;text-decoration-line:none;text-decoration-style:solid;text-decoration-color:#000;text-transform:none;block-progression:tb;isolation:auto;mix-blend-mode:normal" fill="#ea4335" d="M-206.5-3.638a.5.5 0 1 1 0 1c-.282 0-.5.218-.5.5 0 .282.218.5.5.5a.5.5 0 1 1 0 1c-.823 0-1.5-.677-1.5-1.5 0-.822.677-1.5 1.5-1.5zm7.078-2a.5.5 0 0 0-.492.508c0 .82-.688 1.492-1.574 1.492a.5.5 0 1 0 0 1c1.405 0 2.574-1.11 2.574-2.492a.5.5 0 0 0-.508-.508z" class="colorf05542 svgShape" overflow="visible" transform="translate(217 6.638)"/><path style="line-height:normal;text-indent:0;text-align:start;text-decoration-line:none;text-decoration-style:solid;text-decoration-color:#000;text-transform:none;block-progression:tb;isolation:auto;mix-blend-mode:normal" fill="#34a853" fill-rule="evenodd" d="M-215 20.362v1h27v-1z" class="color2b4255 svgShape" overflow="visible" transform="translate(217 6.638)"/></g></svg>